<svg width="447" height="663" viewBox="0 0 447 663" fill="none" xmlns="http://www.w3.org/2000/svg">
<rect width="445" height="663" rx="20" fill="#2F8893"/>
<mask id="mask0_628_4994" style="mask-type:luminance" maskUnits="userSpaceOnUse" x="57" y="138" width="352" height="197">
<path d="M408.046 138H57.168V334.746H408.046V138Z" fill="white"/>
</mask>
<g mask="url(#mask0_628_4994)">
<path d="M408.046 133.05H57.168V341.764H408.046V133.05Z" fill="#F3F3F3"/>
</g>
<mask id="mask1_628_4994" style="mask-type:luminance" maskUnits="userSpaceOnUse" x="57" y="138" width="352" height="197">
<path d="M408.046 138H57.168V334.746H408.046V138Z" fill="white"/>
</mask>
<g mask="url(#mask1_628_4994)">
<path d="M438.395 201.098H23.1562V206.603H438.395V201.098Z" fill="#313858"/>
</g>
<mask id="mask2_628_4994" style="mask-type:luminance" maskUnits="userSpaceOnUse" x="57" y="138" width="352" height="197">
<path d="M408.046 138H57.168V334.746H408.046V138Z" fill="white"/>
</mask>
<g mask="url(#mask2_628_4994)">
<path d="M353.922 132.793H348.131V346.714H353.922V132.793Z" fill="#313858"/>
<path d="M117.086 132.793H111.295V346.714H117.086V132.793Z" fill="#313858"/>
</g>
<mask id="mask3_628_4994" style="mask-type:luminance" maskUnits="userSpaceOnUse" x="57" y="138" width="352" height="197">
<path d="M408.046 138H57.168V334.746H408.046V138Z" fill="white"/>
</mask>
<g mask="url(#mask3_628_4994)">
<path d="M438.394 235.193H22.5234V238.159H438.394V235.193Z" fill="#313858"/>
<path d="M438.394 244.092H22.5234V247.058H438.394V244.092Z" fill="#313858"/>
<path d="M438.394 252.99H22.5234V255.956H438.394V252.99Z" fill="#313858"/>
<path d="M438.394 261.889H22.5234V264.855H438.394V261.889Z" fill="#313858"/>
<path d="M438.394 270.787H22.5234V273.753H438.394V270.787Z" fill="#313858"/>
<path d="M438.394 288.153H22.5234V291.119H438.394V288.153Z" fill="#313858"/>
<path d="M438.394 297.051H22.5234V300.017H438.394V297.051Z" fill="#313858"/>
<path d="M438.394 305.95H22.5234V308.916H438.394V305.95Z" fill="#313858"/>
<path d="M438.394 279.686H22.5234V282.652H438.394V279.686Z" fill="#313858"/>
</g>
<path d="M446.689 526.016C446.689 522.36 350.841 519.397 232.608 519.397C114.375 519.397 18.5273 522.361 18.5273 526.016C18.5273 529.672 114.375 532.635 232.608 532.635C350.841 532.635 446.689 529.672 446.689 526.016Z" fill="#E2E2E2"/>
<path d="M50.0383 442.183C49.9753 441.851 49.9073 441.521 49.8443 441.188C49.4113 431.937 34.1563 380.583 36.6183 342.493C37.7023 325.721 49.4133 293.748 49.4133 293.748C49.4133 293.748 60.8793 322.624 61.6373 339.705C63.0643 371.869 58.5583 413.428 55.5793 441.777C53.7363 441.88 51.8883 442.008 50.0383 442.183Z" fill="#40746E"/>
<path d="M48.9552 467.072C47.1132 467.092 48.0232 467.027 46.1872 467.133C43.2452 435.525 24.1012 406.667 19.2992 374.63C15.2552 347.652 19.7652 325.905 19.7652 325.905C19.7652 325.905 41.3572 353.182 47.4112 384.545C51.7972 407.265 49.4742 462.518 48.9552 467.072Z" fill="#529665"/>
<path d="M26.139 380.182C34.572 397.621 42.588 432.103 46.508 459.129C45.994 459.197 45.482 459.271 44.973 459.357C36.674 430.541 18.792 402.711 9.978 383.913C7.051 377.671 0 357.498 0 357.498C0 357.498 16.65 360.559 26.139 380.182Z" fill="#96CF90"/>
<path d="M50.3057 459.373C45.9207 425.087 50.8437 382.368 61.8187 360.563C70.1487 344.013 85.6877 326.461 85.6877 326.461C85.6877 326.461 83.7277 355.15 82.2247 366.453C78.3337 395.722 56.1627 422.037 52.1877 459.294L50.3057 459.373Z" fill="#96CF90"/>
<path d="M49.9648 456.508C50.3478 454.753 50.7558 453.013 51.2028 451.297C55.7488 430.972 65.2488 403.372 75.8018 382.925C84.7398 365.607 102.514 355.132 102.514 355.132C102.514 355.132 98.9428 382.499 85.7828 400.862C74.5608 416.522 60.6608 433.833 52.5488 457.034C51.1558 456.69 51.3848 456.759 49.9648 456.508Z" fill="#529665"/>
<path d="M68.9191 523.078H31.0101L25.1211 441.526H74.8071L68.9191 523.078Z" fill="#313858"/>
<path d="M377.906 447.096H275.596V526.758H377.906V447.096Z" fill="#DDCFC7"/>
<path d="M377.906 447.096H275.596V472.307H377.906V447.096Z" fill="#C9BCB5"/>
<path d="M355.722 406.489H297.78C279.966 406.489 265.525 420.93 265.525 438.744V445.732C265.525 449.596 268.657 452.728 272.52 452.728H380.98C384.843 452.728 387.976 449.596 387.976 445.732V438.744C387.976 420.93 373.535 406.489 355.722 406.489Z" fill="#E5DCD2"/>
<path d="M230.171 495.85C230.171 495.85 240.009 496.991 244.133 496.805C244.133 496.805 243.118 512.39 242.167 515.687C241.216 518.984 240.58 521.067 240.58 521.067L224.625 515.178C224.625 515.178 226.394 512.143 227.428 509.208C228.462 506.272 230.171 495.85 230.171 495.85Z" fill="#BD8368"/>
<path d="M248.565 524.787C245.897 527.972 236.617 526.466 223.615 527.127C210.613 527.788 201.835 527.65 202.069 525.565C202.18 524.628 202.28 523.752 202.723 522.957C203.293 521.974 206.838 518.786 209.166 518.126C213.361 516.925 218.025 512.521 220.673 510.643C223.332 508.778 224.552 507.753 225.936 506.557C228.147 504.652 233.319 506.631 237.936 507.587C242.564 508.532 242.148 507.628 244.133 506.749C245.773 506.026 248.382 509.8 248.541 513.703C248.566 514.516 248.592 515.316 248.628 516.092C248.813 520.596 251.222 521.601 248.565 524.787Z" fill="#313858"/>
<path d="M314.307 495.85C314.307 495.85 324.145 496.991 328.269 496.805C328.269 496.805 327.254 512.39 326.303 515.687C325.352 518.984 324.717 521.067 324.717 521.067L308.762 515.178C308.762 515.178 310.531 512.143 311.565 509.208C312.598 506.272 314.307 495.85 314.307 495.85Z" fill="#BD8368"/>
<path d="M332.701 524.787C330.033 527.972 326.356 526.466 313.354 527.127C300.352 527.788 292.547 527.65 292.781 525.565C292.892 524.628 292.991 523.752 293.434 522.957C294.003 521.974 298.512 517.897 301.16 516.019C303.819 514.154 308.688 507.752 310.071 506.557C312.282 504.652 317.453 506.631 322.071 507.587C326.699 508.532 326.284 507.628 328.269 506.749C329.909 506.026 332.518 509.8 332.677 513.703C332.702 514.516 332.728 515.316 332.764 516.092C332.951 520.596 335.359 521.601 332.701 524.787Z" fill="#313858"/>
<path d="M302.276 367.002C296.078 367.445 260.674 391.645 252.642 395.951C246.961 398.997 243.788 403.92 241.574 411.889C239.36 419.858 223.613 496.149 223.613 496.149C223.613 496.149 235.442 500.702 255.364 502.86L274.514 431.119C274.514 431.119 301.052 411.386 316.104 407.402C331.156 403.418 344.335 370.433 344.335 370.433L325.297 364.789L302.276 367.002Z" fill="#428FB0"/>
<path d="M335.625 366.007C334.21 366.8 333.018 383.833 328.787 386.813C316.813 395.249 297.602 409.466 294.014 412.599C289.158 416.839 289.391 423.578 290.779 431.732C292.166 439.886 303.293 504.424 303.293 504.424C303.293 504.424 317.886 510.668 335.839 497.189L322.157 432.24C322.157 432.24 345.955 426.19 357.882 416.179C369.809 406.169 368.327 396.922 366.248 387.177C365.199 382.257 357.653 368.982 357.653 368.982L335.625 366.007Z" fill="#428FB0"/>
<path d="M321.363 212.612C320.893 210.273 318.063 201.916 321.55 198.883C323.563 197.132 325.348 197.116 327.304 198.428C327.304 198.428 328.475 194.568 333.821 195.04C341.181 195.689 340.154 201.338 340.154 201.338C340.154 201.338 342.588 200.301 345.075 201.563C348.291 203.195 348.664 205.735 348.445 208.325C348.226 210.915 346.255 211.487 346.255 211.487C346.255 211.487 348.857 212.605 349.002 214.927C349.272 219.253 344.361 217.848 344.361 217.848C344.361 217.848 345.144 221.973 343.018 224.029C338.874 228.036 333.921 224.106 333.921 224.106C331.898 225.182 327.013 220.311 327.013 220.311L321.363 212.612Z" fill="#1F1E2F"/>
<path d="M321.29 246.624C323.393 246.064 330.615 244.167 334.011 239.696C343.545 227.145 333.598 215.08 329.803 209.864C323.833 201.658 314.514 202.385 314.514 202.385L313.812 202.417C310.218 202.161 303.016 201.622 298.13 205.182C288.749 212.018 287.049 223.848 293.101 231.062C295.959 234.468 313.326 248.745 321.29 246.624Z" fill="#1F1E2F"/>
<path d="M339.648 274.615C338.961 268.382 338.265 264.184 338.265 264.184C338.265 264.184 329.228 262.751 326.018 257.891C321.366 250.848 324.445 233.969 324.445 233.969L307.078 244.5C307.078 244.5 312.576 259.734 303.767 264.82C300.14 266.914 298.74 268.71 298.74 268.71C298.74 268.71 296.839 273.659 297.314 280.077C303.393 279.96 312.219 291.757 318.27 290.987C326.342 289.96 331.627 276.171 339.648 274.615Z" fill="#BD8368"/>
<path d="M308.631 256.613C314.184 257.297 320.62 252.663 323.498 243.038C323.702 238.052 324.445 233.969 324.445 233.969L307.078 244.5C307.078 244.5 309.337 250.773 308.631 256.613Z" fill="#A4725A"/>
<path d="M295.185 212.459C294.779 215.98 295.725 224.973 295.789 231.567C295.821 234.863 294.938 239.968 297.943 245.565C299.849 249.115 303.139 253.342 307.029 253.53C310.336 253.69 313.149 252.134 316.405 249.608C321.532 245.629 323.8 240.206 324.773 236.284C325.746 232.362 325.113 225.179 323.372 217.899C321.631 210.619 316.813 207.896 311.355 207.158C305.896 206.42 295.185 212.459 295.185 212.459Z" fill="#BD8368"/>
<path d="M312.618 223.294C304.957 217.694 303.118 212.401 302.537 206.297C302.537 206.297 309.4 202.27 317.441 206.618C334.074 215.612 329.115 223.211 328.545 230.916C325.274 225.235 320.324 228.926 312.618 223.294Z" fill="#1F1E2F"/>
<path d="M310.013 205.585C306.62 206.077 297.322 212.92 295.565 219.959C293.388 228.684 292.971 218.086 292.971 218.086L292.861 213.376C292.861 213.376 299.66 204.281 305.304 204.554C310.948 204.827 310.013 205.585 310.013 205.585Z" fill="#1F1E2F"/>
<path d="M275.298 298.866C272.273 308.116 268.618 319.019 266.558 324.186C265.307 327.324 264.26 332.539 264.26 332.539C260.594 333.767 252.992 336.232 237.375 343.196C235.875 343.865 229.23 344.644 229.204 344.657C225.377 342.929 218.339 345.075 215.787 344.929C211.338 344.674 208.818 343.122 206.937 343.799C203.948 344.874 205.234 346.767 205.234 346.767C205.234 346.767 202.032 346.32 201.066 347.145C200.48 347.645 200.296 348.568 200.9 349.425C199.028 349.115 197.186 349.447 197.1 350.572C197.014 351.7 199.547 352.998 201.829 354.013C200.346 353.821 199.123 353.622 198.654 353.706C197.758 353.867 197.158 354.951 197.725 355.792C198.292 356.633 201.6 357.587 204.763 358.222C207.123 358.696 211.918 358.587 214.202 358.501C214.625 358.518 215.049 358.503 215.467 358.445C221.268 357.648 228.59 354.003 231.743 353.409C231.78 353.367 231.817 353.329 231.854 353.288C239.399 352.528 252.631 351.104 263.561 349.446C271.563 348.232 276.745 343.4 277.57 342.02C283.441 332.197 290.95 316.61 295.14 307.673C288.533 304.715 281.978 301.64 275.298 298.866Z" fill="#BD8368"/>
<path d="M286.479 323.117C288.53 323.522 289.668 320.769 291.934 321.036C297.608 309.539 302.009 303.156 302.009 303.156C302.009 303.156 303.729 273.646 296.96 269.195C296.96 269.195 289.691 274.529 284.098 280.103C277.752 286.427 271.025 304.498 269.354 316.564C275.655 319.527 279.671 321.772 286.479 323.117Z" fill="#4EA9D0"/>
<path d="M271.063 307.928C270.044 311.566 269.26 314.479 268.471 317.702C272.042 319.773 281.611 324.765 290.68 324.765C292.307 321.087 294.752 315.843 294.752 315.843C285.349 315.265 278.449 312.003 271.063 307.928Z" fill="#313858"/>
<path d="M290.176 301.313C289.257 305.152 290.681 311.488 295.595 316.807C295.595 316.807 297.362 326.452 297.238 331.265C297.151 334.626 298.094 346.021 297.764 349.917C296.505 364.787 294.751 372.119 294.751 372.119C294.751 372.119 305.072 376.529 322.242 376.635C343.991 376.77 360.793 374.758 360.793 374.758C360.793 374.758 360.692 370.754 357.526 357.163C356.229 351.594 353.855 330.974 353.878 324.653C353.964 300.824 359.569 301.323 359.431 297.152C359.159 288.882 354.32 275.463 349.933 270.515C345.053 265.01 328.563 260.163 328.563 260.163C328.563 260.163 327.831 265.861 325.196 271.69C322.352 277.983 317.71 280.09 315.695 280.344C303.19 281.923 304.578 263.998 304.578 263.998L296.96 269.194C296.96 269.194 293.812 286.126 290.176 301.313Z" fill="#4EA9D0"/>
<path d="M312.977 297.116L298.355 298.746L298.818 302.89L313.439 301.26L312.977 297.116Z" fill="#2F8893"/>
<path d="M325.062 227.811C325.062 227.811 326.054 224.627 327.958 226.524C329.862 228.421 328.124 232.586 326.448 234.436C324.772 236.285 322.525 235.91 322.525 235.91L325.062 227.811Z" fill="#BD8368"/>
<path d="M105.078 526.758V432.789C105.078 427.007 101.231 422.32 96.4864 422.32H60.7404C55.9954 422.32 52.1484 427.007 52.1484 432.789V526.758" stroke="#A2A5AD" stroke-width="5" stroke-miterlimit="10"/>
<path d="M420.287 526.758V432.789C420.287 427.007 416.44 422.32 411.695 422.32H375.949C371.204 422.32 367.357 427.007 367.357 432.789V526.758" stroke="#A2A5AD" stroke-width="5" stroke-miterlimit="10"/>
<path d="M409.515 400.23H23.6641V420.978H409.515V400.23Z" fill="#BEC1CB"/>
<path d="M441.551 400.23H409.516V420.978H441.551V400.23Z" fill="#A2A5AD"/>
<path d="M66.391 399.036C67.398 398.47 70.283 398.276 71.52 397.859C74.47 396.863 77.763 395.936 80.694 395.126C84.854 393.975 85.242 392.563 91.941 391.352C98.64 390.141 101.787 377.733 105.46 369.012C113.081 350.916 119.945 340.928 123.999 333.623C128.053 326.318 144.466 293.276 144.466 293.276C145.88 290.438 149.786 278.936 159.514 280.201C164.905 280.902 168.124 289.131 165.032 297.438C162.506 304.223 141.058 328.992 136.005 342.123C133.191 349.437 127.428 358.461 120.982 367.629C117.022 373.262 104.383 392.024 103.096 395.118C101.34 399.34 99.41 401.281 97.259 402.24C95.109 403.2 84.01 401.933 81.009 402.103C75.346 402.423 75.573 401.906 71.874 402.492C69.679 402.84 69.074 400.987 67.994 401.125C65.244 401.477 64.878 399.886 66.391 399.036Z" fill="#FEC1B2"/>
<path d="M366.969 400.821L366.953 400.722C355.266 401.111 336.641 401.822 330.6 401.692C331.072 396.755 331.617 391.827 332.311 386.917C338.469 387.842 366.337 388.071 368.092 388.302C369.878 388.311 371.362 388.312 372.439 388.308C372.442 388.307 372.446 388.307 372.449 388.306C374.591 387.63 375.668 386.014 378.295 382.139C380.922 378.264 383.964 367.966 384.733 365.781C385.503 363.596 386.79 362.212 387.301 360.793C387.813 359.373 389.411 358.449 389.411 358.449C389.484 356.897 391.279 356.538 392.024 358.573C392.77 360.608 391.794 366.782 391.237 373.865C390.68 380.948 390.547 393.161 390.163 396.586C389.779 400.011 388.893 402.302 385.552 402.478C382.211 402.653 379.387 401.298 376.97 400.739C376.308 400.586 375.611 400.511 374.858 400.481C374.401 400.483 373.023 400.524 371.017 400.588C369.833 400.661 368.513 400.751 366.969 400.821Z" fill="#EAAD96"/>
<path d="M140.977 361.252C140.795 373.054 134.48 397.453 156.497 401.926C172.333 405.143 183.267 404.087 202.647 403.623C218.319 403.247 280.82 401.493 280.82 401.493C280.82 401.493 310.558 403.645 330.191 404.276C349.823 404.907 366.968 400.822 366.968 400.822C366.968 400.822 368.996 394.133 367.223 388.179C367.223 388.179 311.065 381.779 301.897 380.349C289.118 378.355 260.123 370.372 246.471 368.401C232.819 366.43 191.204 359.969 181.795 360.25C172.384 360.53 140.977 361.252 140.977 361.252Z" fill="#252B42"/>
<path d="M281.688 355.225C287.402 361.514 299.206 370.953 302.699 374.952C304.482 376.994 306.417 378.873 308.407 380.592C309.213 381.212 320.914 390.199 324.77 392.556C328.765 394.997 339.195 397.549 341.414 398.215C343.633 398.881 345.076 400.101 346.518 400.545C347.961 400.989 348.959 402.542 348.959 402.542C350.512 402.542 350.956 404.317 348.959 405.158C346.962 405.999 340.748 405.316 333.647 405.094C326.545 404.872 314.34 405.316 310.9 405.094C307.46 404.872 305.13 404.095 304.797 400.767C304.521 398.011 304.663 394.887 302.252 392.201C301.751 391.643 296.662 385.743 292.79 383.575C287.863 380.816 277.481 371.096 271.023 365.594C274.511 362.066 278.047 358.592 281.688 355.225Z" fill="#EAAD96"/>
<path d="M133.338 366.911C137.639 377.903 138.609 402.365 161.072 402.843C183.535 403.321 197.289 390.522 209.715 380.963C222.141 371.405 253.247 346.075 253.247 346.075C253.247 346.075 258.791 357.589 273.607 370.486C288.423 383.383 296.937 388.176 296.937 388.176C296.937 388.176 303.517 383.919 305.906 378.184C305.906 378.184 283.047 345.968 275.65 333.65C268.991 322.562 259.983 313.951 246.601 317.296C233.219 320.641 185.818 342.731 177.216 346.554C168.613 350.376 133.338 366.911 133.338 366.911Z" fill="#313858"/>
<path d="M155.125 273.881C157.678 279.127 169.238 277.239 178.251 267.124C187.264 257.01 194.184 239.452 186.065 226.55C177.946 213.648 165.52 237.563 161.111 250.365C156.702 263.167 155.125 273.881 155.125 273.881Z" fill="#531717"/>
<path d="M133.338 270.327C133.338 270.327 141.186 259.888 146.672 251.697C151.771 244.085 151.543 238.9 151.616 238.31C151.62 238.274 151.624 238.237 151.624 238.237L156.998 222.982C156.998 222.982 163.717 216.889 172.225 221.944C180.733 226.999 183.878 230.609 184.389 234.793C184.819 238.317 183.338 242.32 182.489 244.079C181.641 245.838 179.898 247.053 180.041 249.161C180.184 251.269 182.221 255.873 182.066 256.962C181.911 258.051 178.359 258.4 177.737 258.866C177.115 259.333 173.033 263.678 171.21 266.065C169.819 267.887 167.104 264.982 162.635 264.217C160.455 263.844 158.883 264.83 157.62 266.547C156.06 269.886 159.259 272.66 161.327 275.209C161.327 275.209 171.795 289.259 171.508 295.684C171.405 297.995 169.33 305.35 169.33 305.35C169.33 305.35 161.428 309.553 152.478 306.697C144.281 304.082 136.473 278.454 136.986 269.856L133.338 270.327Z" fill="#EAAD96"/>
<path d="M131.348 271.316C131.348 271.316 141.713 267.411 147.358 273.767C153.003 280.123 150.407 293.908 162.387 296.501C177.768 299.83 161.754 276.731 159.587 273.168L164.55 276.184C164.55 276.184 168.157 283.23 171.001 288.201C173.845 293.172 178.188 300.055 177.753 306.556C177.319 313.057 166.67 318.203 167.104 323.796C167.538 329.388 177.215 346.553 177.215 346.553C177.215 346.553 175.836 360.352 161.867 370.609C150.91 378.655 142.295 377.734 134.399 377.513C131.835 367.358 121.207 347.359 121.319 328.331C121.491 299.133 118.204 278.187 122.329 272.594C126.455 267.002 131.348 271.316 131.348 271.316Z" fill="#CC272F"/>
<path d="M152.306 269.934C153.772 256.549 151.295 247.225 159.233 242.193C161.378 240.833 168.525 240.112 171.186 239.693C185.652 237.419 186.066 226.55 186.066 226.55C186.066 226.55 180.659 217.976 168.582 214.727C156.505 211.478 142.419 215.974 136.163 237.039C131.93 251.295 125.964 256.444 119.032 269.82C109.035 289.109 125.964 293.908 125.964 293.908C139.989 288.333 124.979 292.16 127.362 279.435C127.766 277.282 137.785 275.555 143.222 276.394C148.93 277.275 151.625 276.145 152.306 269.934Z" fill="#531717"/>
<path d="M160.679 242.661C160.679 242.661 160.119 237.117 155.635 238.327C151.151 239.537 151.98 246.91 155.154 250.954L160.679 242.661Z" fill="#EAAD96"/>
<path d="M35.1957 400.587C36.2207 400.041 39.3527 398.561 40.6317 398.197C43.6837 397.329 47.1047 396.563 50.1507 395.896C54.4737 394.95 64.0277 394.834 71.0387 394.018C78.0497 393.202 80.4287 379.783 83.6497 370.464C90.3337 351.128 96.8427 340.66 100.577 332.93C104.311 325.199 119.166 290.086 119.166 290.086C120.446 287.071 123.701 274.707 134.116 276.852C139.887 278.04 143.938 287.35 141.301 296.258C139.147 303.534 118.312 329.149 113.968 343.217C111.548 351.053 106.134 360.544 100.006 370.141C96.2407 376.037 85.2477 400.842 82.0667 402.157C78.8857 403.473 70.4127 406.207 68.2057 407.097C65.9987 407.987 62.5167 406.613 59.3697 406.828C56.2227 407.043 50.0177 406.639 50.2537 405.234C50.4897 403.829 51.5537 402.569 55.0147 402.578C58.4757 402.587 62.1937 401.093 62.1937 401.093C62.1937 401.093 58.0997 400.512 53.2727 400.61C51.3527 400.649 47.5337 400.789 43.8417 401.328C41.4527 401.676 38.1907 402.941 37.0557 403.01C34.1677 403.187 33.6567 401.407 35.1957 400.587Z" fill="#FEC1B2"/>
<path d="M294.173 340.94C294.173 340.94 288.003 342.833 286.447 341.785C284.891 340.737 283.604 339.517 281.77 339.13C280.125 338.783 279.25 339.44 279.25 339.44L281.359 343.329C281.359 343.329 273.157 345.309 270.833 345.143C268.509 344.977 261.655 344.993 261.052 345.806C260.449 346.62 261.461 347.798 262.579 348.182C262.579 348.182 257.361 347.333 257.065 348.208C256.769 349.082 257.818 351.163 260.002 351.445C260.002 351.445 259.491 352.937 260.645 353.681C261.799 354.425 264.048 354.717 264.048 354.717C264.048 354.717 262.892 355.477 263.819 356.128C264.746 356.778 267.283 357.232 270.869 357.722C274.455 358.212 278.428 357.79 281.786 356.495C283.046 356.009 286.139 354.172 288.668 353.272C292.879 351.773 297.869 351.019 297.869 351.019L294.173 340.94Z" fill="#BD8368"/>
<path d="M338.065 297.133C335.355 306.851 327.009 328.416 327.009 328.416C318.927 330.226 299.45 339.251 288.568 342.339C289.428 345.675 290.213 349.029 290.938 352.397C297.13 351.419 305.746 350.028 315.955 348.309C326.322 346.564 330.438 344.278 335.647 342.292C339.961 340.647 346.354 327.913 353.309 312.703C355.851 307.144 357.785 302.551 358.902 298.684C351.119 299.155 345.679 298.76 338.065 297.133Z" fill="#BD8368"/>
<path d="M351.122 318.578C352.45 316.065 355.264 310.974 356.454 308.384C363.439 293.187 360.343 286.866 358.44 281.48C356.164 275.039 349.934 270.516 349.934 270.516L338.213 287.192C337.059 292.044 334.745 299.516 332.811 305.506C338.075 310.206 344.423 316.718 351.122 318.578Z" fill="#4EA9D0"/>
<path d="M332.809 305.506C332.809 305.506 346.069 313.225 353.999 314.106L349.012 323.693C349.012 323.693 336.629 320.531 329.367 313.201L332.809 305.506Z" fill="#313858"/>
</svg>
